# xmcd CD database file
# Copyright (C) 1993-1998 Ti Kan
# 
# Track frame offsets:
#     150
#     20470
#     39480
#     53055
#     82355
#     98427
#     121365
#     136987
#     161375
#     179050
#     195260
#     203557
# 
# Disc length: 2963 seconds
# 
# Revision: 1
# Processed by: cddbd v1.4b41PL1 Copyright (c) Steve Scherf et al.
# Submitted via: DiscPlay 4.0.4
# 
DISCID=980b910c
DTITLE=Snowy White's Blues Agency - Change My Life
DYEAR=1900
DGENRE=
TTITLE0=Woke Up This Morning
TTITLE1=The Thrill Is Gone
TTITLE2=You Know It Ain't Right
TTITLE3=Change My Life
TTITLE4=The Agency Blues
TTITLE5=Judgement Day
TTITLE6=Ooh-Wee Baby
TTITLE7=The Rest Of My Life
TTITLE8=Parchman Farm
TTITLE9=The Agency Shuffle
TTITLE10=Another Man
TTITLE11=No Place To Go
EXTD=
EXTT0=
EXTT1=
EXTT2=
EXTT3=
EXTT4=
EXTT5=
EXTT6=
EXTT7=
EXTT8=
EXTT9=
EXTT10=
EXTT11=
PLAYORDER=
